<svg width="24" height="25" viewBox="0 0 24 25" fill="none" xmlns="http://www.w3.org/2000/svg">
<path fill-rule="evenodd" clip-rule="evenodd" d="M4.5 2.66357C2.98122 2.66357 1.75 3.89479 1.75 5.41357V20.4136C1.75 21.9324 2.98122 23.1636 4.5 23.1636H19.5C21.0188 23.1636 22.25 21.9324 22.25 20.4136V5.41357C22.25 3.89479 21.0188 2.66357 19.5 2.66357H4.5ZM14.5 6.91357C14.5 6.36129 14.0523 5.91357 13.5 5.91357C12.9477 5.91357 12.5 6.36129 12.5 6.91357V15.4136C12.5 16.7943 11.3807 17.9136 10 17.9136C8.61929 17.9136 7.5 16.7943 7.5 15.4136C7.5 14.0329 8.61929 12.9136 10 12.9136C10.5523 12.9136 11 12.4659 11 11.9136C11 11.3613 10.5523 10.9136 10 10.9136C7.51472 10.9136 5.5 12.9283 5.5 15.4136C5.5 17.8989 7.51472 19.9136 10 19.9136C12.4853 19.9136 14.5 17.8989 14.5 15.4136V10.4766C15.3659 11.0688 16.4276 11.4136 17.5 11.4136C18.0523 11.4136 18.5 10.9659 18.5 10.4136C18.5 9.86129 18.0523 9.41357 17.5 9.41357C16.7397 9.41357 15.9649 9.12431 15.3902 8.64535C14.8206 8.17071 14.5 7.55999 14.5 6.91357Z" fill="white"/>
</svg>
