<svg width="25" height="25" viewBox="0 0 25 25" fill="none" xmlns="http://www.w3.org/2000/svg">
<path d="M11.5347 3.20151L4.18171 7.07146C3.46938 7.44638 3.46938 8.46638 4.18171 8.8413L11.5347 12.7113C11.8262 12.8647 12.1746 12.8647 12.4661 12.7113L19.8191 8.8413C20.5314 8.46638 20.5314 7.44638 19.8191 7.07146L12.4661 3.20151C12.1746 3.04807 11.8262 3.04807 11.5347 3.20151Z" stroke="#101010" stroke-width="1.5" stroke-linecap="round" stroke-linejoin="round"/>
<path d="M3.50023 11.9565L3.46001 11.9967C2.98357 12.4732 3.10512 13.2749 3.70139 13.5887L11.5345 17.7114C11.826 17.8649 12.1744 17.8649 12.4659 17.7114L20.299 13.5887C20.8953 13.2749 21.0169 12.4732 20.5404 11.9967L20.5002 11.9565" stroke="#101010" stroke-width="1.5" stroke-linecap="round" stroke-linejoin="round"/>
<path d="M3.50023 16.9565L3.46001 16.9967C2.98357 17.4732 3.10512 18.2749 3.70139 18.5887L11.5345 22.7114C11.826 22.8649 12.1744 22.8649 12.4659 22.7114L20.299 18.5887C20.8953 18.2749 21.0169 17.4732 20.5404 16.9967L20.5002 16.9565" stroke="#101010" stroke-width="1.5" stroke-linecap="round" stroke-linejoin="round"/>
</svg>
