<svg width="25" height="25" viewBox="0 0 25 25" fill="none" xmlns="http://www.w3.org/2000/svg">
<path d="M12.1087 4.70463C12.4797 3.97671 13.5197 3.97671 13.8907 4.70463L16.0782 8.99704C16.2234 9.28195 16.4961 9.48024 16.8119 9.53054L21.5668 10.2878C22.3727 10.4162 22.6938 11.4037 22.1175 11.9815L18.7135 15.3946C18.488 15.6207 18.3841 15.9409 18.4338 16.2564L19.184 21.0198C19.3111 21.8265 18.47 22.4371 17.7423 22.0665L13.4536 19.8817C13.1684 19.7364 12.831 19.7364 12.5458 19.8817L8.25707 22.0665C7.52941 22.4371 6.68827 21.8265 6.81533 21.0198L7.56562 16.2564C7.6153 15.9409 7.51135 15.6207 7.28585 15.3946L3.88185 11.9815C3.30558 11.4037 3.62671 10.4162 4.43262 10.2878L9.1875 9.53054C9.5033 9.48024 9.776 9.28195 9.92119 8.99704L12.1087 4.70463Z" stroke="#101010" stroke-width="1.5" stroke-linejoin="round"/>
</svg>
