<svg width="32" height="32" viewBox="0 0 32 32" fill="none" xmlns="http://www.w3.org/2000/svg">
<path d="M5.99967 12.6667V16.2289C5.99967 16.9361 5.71873 17.6143 5.21862 18.1145L3.33301 20.0001V21.8427C3.33301 22.3477 3.61587 22.8121 4.07799 23.0158C6.20162 23.9521 10.3582 25.3334 15.9997 25.3334C21.6411 25.3334 25.7977 23.9521 27.9214 23.0158C28.3834 22.8121 28.6663 22.3477 28.6663 21.8427V20.0001L26.7807 18.1145C26.2806 17.6143 25.9997 16.9361 25.9997 16.2289V12.6667C25.9997 7.14389 21.5225 2.66675 15.9997 2.66675C10.4768 2.66675 5.99967 7.14389 5.99967 12.6667Z" stroke="#141B34" stroke-width="1.5" stroke-linecap="round" stroke-linejoin="round"/>
<path d="M20.6663 25.3333C20.6663 27.5425 18.5466 29.3333 15.9622 29.3333C13.3778 29.3333 11.333 27.5425 11.333 25.3333" stroke="#141B34" stroke-width="1.5" stroke-linejoin="round"/>
</svg>
